<svg width="888" height="302" viewBox="0 0 888 302" version="1.1" xmlns="http://www.w3.org/2000/svg" xmlns:xlink="http://www.w3.org/1999/xlink">
<title>v2 outline</title>
<desc>Created using Figma</desc>
<g id="Canvas" transform="translate(-2352 -1602)">
<g id="v2 outline">
<g id="v2 outline">
<g id="t">
<use xlink:href="#path0_fill" transform="translate(3092.62 1703.04)"/>
</g>
<g id="t underline (Stroke)">
<use xlink:href="#path1_fill" transform="matrix(0.70831 0.705901 -0.70831 0.705901 3120.76 1790.08)"/>
</g>
<g id="p">
<use xlink:href="#path2_fill" transform="translate(2997.95 1721.9)"/>
</g>
<g id="i (Stroke)">
<use xlink:href="#path3_fill" transform="translate(2949.13 1719.46)"/>
</g>
<g id="i dot (Stroke)">
<use xlink:href="#path4_fill" transform="translate(2957.86 1685.26)"/>
</g>
<g id="cr">
<use xlink:href="#path5_fill" transform="translate(2802.5 1719.46)"/>
<use xlink:href="#path6_fill" transform="translate(2802.5 1719.46)"/>
</g>
<g id="c bottom">
<use xlink:href="#path7_fill" transform="matrix(1 0 0 -1 2812.14 1821.65)"/>
</g>
<g id="c top">
<use xlink:href="#path8_fill" transform="translate(2812.14 1684)"/>
</g>
<g id="~ (Stroke)">
<use xlink:href="#path9_fill" transform="matrix(-6.14413e-17 1 1 6.10241e-17 2753.93 1689.52)"/>
</g>
<g id="a">
<use xlink:href="#path10_fill" transform="translate(2677.56 1685.64)"/>
</g>
<g id="t">
<use xlink:href="#path11_fill" transform="matrix(-1 0 0 1 2670.21 1701.68)"/>
</g>
<g id="t dot">
<use xlink:href="#path12_fill" transform="translate(2628.72 1795.13)"/>
</g>
<g id="a (Stroke)">
<use xlink:href="#path13_fill" transform="matrix(-1 -1.22048e-16 1.22883e-16 -1 2607.11 1783.67)"/>
</g>
<g id="Path">
<use xlink:href="#path14_fill" transform="translate(2446 1694.83)"/>
</g>
</g>
</g>
</g>
<defs>
<path id="path0_fill" d="M 32.8919 28.1183L 32.8919 59.7143C 32.8919 64.9927 33.2383 68.4951 33.9313 70.2217C 34.6243 71.8989 36.0598 72.7375 38.2377 72.7375C 41.5046 72.7375 44.128 70.715 46.108 66.6699L 53.3843 69.1117C 49.6224 78.4845 41.5789 83.1709 29.2537 83.1709C 22.4724 83.1709 17.374 81.543 13.9586 78.2872C 10.5432 74.982 8.83551 70.049 8.83551 63.4881L 8.83551 28.1183L 0 28.1183L 0 20.1268L 1.8562 20.2008C 7.84554 20.2008 12.9686 18.3015 17.2255 14.5031C 21.4824 10.7047 24.0563 5.8703 24.9473 0L 32.8919 0L 32.8919 20.1268L 51.1569 20.1268L 51.1569 28.1183L 32.8919 28.1183Z"/>
<path id="path1_fill" fill-rule="evenodd" d="M 15.4428 10L 10 10L 10 15.4428L 15.4428 15.4428L 15.4428 10ZM 0 0L 0 25.4428L 25.4428 25.4428L 25.4428 0L 0 0Z"/>
<path id="path2_fill" d="M 70.0901 14.9471C 69.8921 16.1803 69.7188 17.5369 69.5704 19.0168C 69.4219 20.4967 69.2981 22.1986 69.1991 24.1225C 69.1001 26.0464 69.0259 28.2663 68.9764 30.7821C 68.9269 33.2979 68.9021 36.2084 68.9021 39.5136C 68.9021 43.8546 69.3971 47.1351 70.3871 49.3549C 71.3771 51.5255 73.2085 52.6107 75.8814 52.6107C 79.1483 52.6107 81.7718 50.5882 83.7517 46.5431L 91.028 48.985C 87.2661 58.3577 79.2226 63.0441 66.8974 63.0441C 62.987 63.0441 59.6954 62.4768 57.0224 61.3422C 54.399 60.2076 52.2706 58.6044 50.6371 56.5325C 49.0532 54.4606 47.9147 51.9941 47.2217 49.133C 46.5287 46.2225 46.1822 43.0407 46.1822 39.5876C 46.1822 35.8878 46.207 32.6813 46.2565 29.9681C 46.3555 27.2057 46.4792 24.8131 46.6277 22.7906C 46.7762 20.7187 46.9495 18.9428 47.1475 17.4629C 47.3455 15.983 47.5435 14.6511 47.7414 13.4672L 31.7781 13.4672C 31.4811 19.1895 31.3079 24.2458 31.2584 28.6362C 31.2089 32.9773 31.1347 36.8004 31.0357 40.1055C 30.9862 43.4107 30.8377 46.2965 30.5902 48.763C 30.3427 51.1802 29.8477 53.326 29.1052 55.2006C 28.5607 56.5325 27.942 57.7164 27.249 58.7524C 26.556 59.739 25.665 60.5529 24.5761 61.1942C 23.5366 61.8355 22.2249 62.3041 20.6409 62.6001C 19.1065 62.9454 17.2008 63.1181 14.9238 63.1181C 12.5479 63.1181 10.6175 62.4521 9.1325 61.1202C 7.69704 59.8376 6.97931 58.2837 6.97931 56.4585C 6.97931 54.6333 7.25155 53.0794 7.79604 51.7968C 8.39002 50.4649 9.10775 49.1083 9.94923 47.7271C 10.8402 46.3458 11.7807 44.8166 12.7707 43.1393C 13.8101 41.4621 14.7506 39.3409 15.5921 36.7757C 16.4831 34.1612 17.2008 31.0041 17.7453 27.3043C 18.3392 23.5552 18.6362 18.9428 18.6362 13.4672L 17.8938 13.4672C 15.5178 13.5658 13.6616 14.2318 12.3252 15.465C 11.0382 16.6983 9.82548 18.5482 8.68701 21.0147L 0 21.0147C 0.890976 18.3509 1.9057 15.9337 3.04417 13.7631C 4.23213 11.5433 5.5191 9.57008 6.90506 7.84352C 8.34052 6.01829 9.65224 4.58772 10.8402 3.55178C 12.0777 2.51584 13.3894 1.75123 14.7753 1.25792C 16.2108 0.715289 17.8443 0.369977 19.6757 0.221986C 21.5567 0.0739954 23.8831 0 26.655 0L 87.1671 0C 86.0287 2.86116 85.0139 5.27834 84.123 7.25155C 83.232 9.17543 82.44 10.754 81.747 11.9873C 81.054 13.1712 80.4353 14.0345 79.8908 14.5771C 79.3958 15.1197 78.9503 15.4157 78.5544 15.465L 70.0901 14.9471Z"/>
<path id="path3_fill" fill-rule="evenodd" d="M 37.0555 53.0441C 35.9132 51.5972 35.342 49.0355 35.342 45.3592L 35.342 0L 0 5.62365L 0 13.4672L 1.7077 13.4672C 4.50155 13.4672 6.61375 13.8013 8.04433 14.4694C 8.74278 14.7957 9.27875 15.2015 9.65224 15.687C 10.7907 17.1176 11.3599 19.6581 11.3599 23.3086L 11.3599 45.3592C 11.3599 48.9603 10.7907 51.5008 9.65224 52.9807C 9.63658 53.002 9.6206 53.0231 9.6043 53.0441C 8.48679 54.4818 5.85459 55.2006 1.7077 55.2006L 0 55.2006L 0 63.0441L 45.4398 63.0441L 45.4398 55.2006C 41.0839 55.2006 38.312 54.51 37.124 53.1287C 37.1009 53.101 37.0781 53.0727 37.0555 53.0441ZM 26.2126 53.0441C 25.4914 50.3212 25.342 47.5909 25.342 45.3592L 25.342 11.717L 19.4254 12.6585C 21.0742 16.2664 21.3599 20.2428 21.3599 23.3086L 21.3599 45.3592C 21.3599 47.6401 21.1947 50.3531 20.4711 53.0441L 26.2126 53.0441Z"/>
<path id="path4_fill" fill-rule="evenodd" d="M 11.3592 11.3425C 10.3365 12.3714 10 13.2631 10 14.5228C 10 15.8428 10.352 16.7085 11.333 17.677C 12.3665 18.6973 13.2772 19.0457 14.5724 19.0457C 15.8676 19.0457 16.7783 18.6973 17.8118 17.677C 18.7928 16.7085 19.1448 15.8428 19.1448 14.5228C 19.1448 13.2631 18.8083 12.3714 17.7856 11.3425C 16.8129 10.364 15.9283 10 14.5724 10C 13.2165 10 12.3319 10.364 11.3592 11.3425ZM 4.26706 4.29266C 1.42234 7.15445 0 10.5645 0 14.5228C 0 18.5347 1.43576 21.9581 4.30731 24.7931C 7.17887 27.6282 10.6005 29.0457 14.5724 29.0457C 18.5443 29.0457 21.9659 27.6282 24.8375 24.7931C 27.709 21.9581 29.1448 18.5347 29.1448 14.5228C 29.1448 10.5645 27.7225 7.15445 24.8777 4.29266C 22.033 1.43087 18.5979 0 14.5724 0C 10.5469 0 7.11178 1.43087 4.26706 4.29266Z"/>
<path id="path5_fill" d="M 58.5074 44.3973L 66.0807 47.7271C 64.0018 53.4 60.2151 57.7904 54.7208 60.8982C 49.2759 63.9567 42.9153 65.486 35.639 65.486C 25.6898 65.486 17.2503 62.7235 10.3205 57.1985C 3.44016 51.6241 0 43.9533 0 34.1859C 0 23.9252 3.7619 15.6624 11.2857 9.39742C 18.8095 3.13247 28.5607 0 40.5394 0C 47.9642 0 53.8298 1.35658 58.1362 4.06975C 62.492 6.78291 64.67 10.3594 64.67 14.7991C 64.67 17.3149 63.8038 19.5348 62.0713 21.4587C 60.3884 23.3332 58.1857 24.2705 55.4632 24.2705C 50.0679 24.2705 46.6277 20.7681 45.1428 13.7631C 44.6973 11.6913 44.029 10.2114 43.1381 9.32342C 42.2471 8.43548 40.7126 7.99151 38.5347 7.99151C 34.1293 7.99151 30.8129 9.74273 28.5855 13.2452C 26.4075 16.6983 25.3186 21.9026 25.3186 28.8582C 25.3186 38.379 26.6303 45.2359 29.2537 49.4289C 31.9266 53.5727 36.0845 55.6446 41.7274 55.6446C 49.4491 55.6446 55.0425 51.8955 58.5074 44.3973Z"/>
<path id="path6_fill" d="M 77.1436 63.0441L 90.2113 20.3487C 91.1023 17.4876 91.5478 15.4404 91.5478 14.2071C 91.5478 12.6779 90.7805 11.9133 89.2461 11.9133C 85.7317 11.9133 82.0935 15.2924 78.3316 22.0506L 71.4265 22.0506C 75.4854 14.7004 80.2621 9.2001 85.7564 5.54966C 91.2508 1.89922 96.5966 0.0739954 101.794 0.0739954C 104.863 0.0739954 107.214 1.03594 108.848 2.95982C 110.53 4.8837 111.372 7.35021 111.372 10.3594C 111.372 13.6152 109.986 20.2747 107.214 30.3381C 118.351 10.162 128.103 0.0739954 136.468 0.0739954C 138.943 0.0739954 141.022 0.887945 142.705 2.51584C 144.388 4.09441 145.229 6.31428 145.229 9.17543C 145.229 12.6286 144.239 15.7364 142.259 18.4989C 140.279 21.212 137.829 22.5686 134.909 22.5686C 132.384 22.5686 130.454 21.508 129.117 19.3868C 128.078 17.8576 127.063 17.0929 126.073 17.0929C 122.658 17.0929 118.005 22.4699 112.114 33.2239C 106.224 43.9779 102.041 53.918 99.5665 63.0441L 77.1436 63.0441Z"/>
<path id="path7_fill" d="M 43.4457 0L 25.6792 13.6283L 6.7184 0L 0 0L 14.7805 26.52L 36.9512 26.52L 50.6866 0L 43.4457 0Z"/>
<path id="path8_fill" d="M 43.2123 0L 25.5413 13.6892L 6.68232 0L 0 0L 14.7011 26.6384L 36.7527 26.6384L 50.4144 0L 43.2123 0Z"/>
<path id="path9_fill" fill-rule="evenodd" d="M 73.8667 12.8517C 54.3602 4.28385 40.2274 0 31.4679 0C 23.15 0 15.9548 3.17596 9.88202 9.52798C 6.16488 13.416 3.48886 18.7845 1.85394 25.6335C 1.4892 27.1615 1.17628 28.7632 0.915172 30.4385C 0.485511 33.1953 0.196154 36.1517 0.047101 39.3075C 0.0294283 39.6817 0.013728 40.0587 0 40.4385L 7.72895 40.4385C 8.39833 35.8919 9.58996 32.1403 11.3039 29.1839C 14.4902 23.6875 19.4817 20.9394 26.2784 20.9394C 30.9894 20.9394 38.4239 23.1182 48.582 27.476C 61.8317 33.1633 70.8855 36.7639 75.7437 38.2781C 80.6019 39.7922 85.4233 40.5493 90.2079 40.5493C 99.3355 40.5493 106.917 37.0964 112.953 30.1904C 116.322 26.3353 118.809 21.5079 120.412 15.7081C 120.903 13.9334 121.31 12.0676 121.636 10.1108C 122.119 7.20261 122.42 4.09331 122.538 0.782909C 122.546 0.559783 122.553 0.335743 122.559 0.11079L 114.83 0.11079C 114.43 4.69447 113.189 8.57806 111.106 11.7617C 110.504 12.6821 109.831 13.544 109.089 14.3474C 105.776 17.9296 101.507 19.7207 96.2806 19.7207C 91.7905 19.7207 84.3192 17.431 73.8667 12.8517ZM 96.2894 29.7207C 96.2865 29.7207 96.2836 29.7207 96.2806 29.7207C 92.571 29.7207 88.473 28.8191 84.3794 27.5645C 80.1502 26.2684 75.2882 24.3921 69.8538 22.0112L 69.8452 22.0074C 50.291 13.4187 37.9015 10 31.4679 10C 29.3195 10 27.2949 10.304 25.3653 10.9515C 25.6688 10.9434 25.9732 10.9394 26.2784 10.9394C 33.241 10.9394 42.358 13.9246 52.5245 18.286L 52.5263 18.2868C 65.8353 23.9995 74.4297 27.3941 78.7192 28.731C 82.6754 29.964 86.4945 30.5493 90.2079 30.5493C 92.396 30.5493 94.4132 30.2783 96.2894 29.7207Z"/>
<path id="path10_fill" d="M 40.7621 90.4224C 37.1487 93.0369 33.3621 95.0101 29.4022 96.342C 25.4918 97.6246 21.3834 98.2659 17.077 98.2659C 11.3847 98.2659 7.10306 96.9833 4.23213 94.4182C 1.41071 91.853 0 88.6712 0 84.8728C 0 79.4958 2.84617 74.7354 8.53852 70.5916C 14.2309 66.4479 24.5266 61.8602 39.4257 56.8285L 39.4257 51.3528C 39.4257 47.4557 38.4852 44.9646 36.6043 43.8793C 34.7233 42.7447 32.4959 42.1774 29.9219 42.1774C 23.6851 42.1774 20.2202 44.4466 19.5272 48.985C 19.0322 52.0928 18.0423 54.362 16.5573 55.7926C 15.0723 57.1738 12.7707 57.8644 9.65224 57.8644C 6.83081 57.8644 4.57863 57.1245 2.89567 55.6446C 1.26222 54.1153 0.445488 52.3394 0.445488 50.3169C 0.445488 45.7292 3.48965 41.8321 9.57799 38.6256C 15.6663 35.4191 23.8089 33.8159 34.0056 33.8159C 39.6979 33.8159 44.4498 34.1612 48.2612 34.8518C 52.1221 35.5425 55.2157 36.8251 57.5422 38.6996C 59.9181 40.5742 61.4773 42.5474 62.2198 44.6192C 63.0118 46.6911 63.4078 49.5029 63.4078 53.0547L 63.4078 81.173C 63.4078 85.4154 64.6947 87.5366 67.2687 87.5366C 69.4961 87.5366 70.9068 86.1553 71.5008 83.3928L 77.6634 83.3928C 77.5149 88.4739 75.6339 92.223 72.0205 94.6402C 68.4566 97.0573 64.175 98.2659 59.1756 98.2659C 50.0679 98.2659 43.9301 95.6514 40.7621 90.4224ZM 39.4257 82.4309L 39.4257 65.116C 32.5454 67.9771 28.041 70.567 25.9125 72.8855C 23.8336 75.204 22.7941 77.5965 22.7941 80.0631C 22.7941 81.9376 23.4129 83.6395 24.6503 85.1687C 25.8878 86.6486 27.5212 87.3886 29.5507 87.3886C 31.3326 87.3886 33.0403 86.9693 34.6738 86.1307C 36.3073 85.2921 37.8912 84.0588 39.4257 82.4309ZM 21.3834 23.7525L 32.0751 0L 62.2198 0L 27.843 23.7525L 21.3834 23.7525Z"/>
<path id="path11_fill" d="M 33.572 28.1783L 33.572 59.8418C 33.572 65.1314 33.9256 68.6414 34.6329 70.3716C 35.3402 72.0524 36.8054 72.8928 39.0283 72.8928C 42.3628 72.8928 45.0405 70.866 47.0614 66.8122L 54.4881 69.2593C 50.6484 78.6521 42.4386 83.3484 29.8586 83.3484C 22.937 83.3484 17.7333 81.7171 14.2472 78.4543C 10.7612 75.1421 9.0182 70.1986 9.0182 63.6236L 9.0182 28.1783L 0 28.1783L 0 20.1697L 1.89458 20.2439C 8.00776 20.2439 13.2368 18.3406 17.5817 14.5341C 21.9266 10.7275 24.5538 5.88284 25.4632 0L 33.572 0L 33.572 20.1697L 52.2146 20.1697L 52.2146 28.1783L 33.572 28.1783Z"/>
<path id="path12_fill" fill-rule="evenodd" d="M 0 13.3932C 0 9.74271 1.3117 6.59794 3.93514 3.95876C 6.55858 1.31957 9.72647 0 13.4389 0C 17.1513 0 20.3192 1.31957 22.9426 3.95876C 25.5661 6.59794 26.8778 9.74271 26.8778 13.3932C 26.8778 17.093 25.5537 20.2501 22.9055 22.8646C 20.2573 25.4791 17.1018 26.7863 13.4389 26.7863C 9.77597 26.7863 6.62046 25.4791 3.97227 22.8646C 1.32408 20.2501 0 17.093 0 13.3932L 0 13.3932Z"/>
<path id="path13_fill" fill-rule="evenodd" d="M 42.6663 59.0788C 42.4741 58.8804 42.2881 58.6764 42.1083 58.467C 41.612 57.8888 41.1632 57.2686 40.7621 56.6065C 39.81 57.2954 38.8459 57.9398 37.8697 58.5397C 36.7341 59.2375 35.5822 59.8751 34.4141 60.4524C 32.8231 61.2386 31.202 61.9131 29.5507 62.4759C 29.5012 62.4927 29.4517 62.5095 29.4022 62.5261C 28.4817 62.8281 27.5503 63.0944 26.6078 63.3253C 23.5466 64.0751 20.3697 64.45 17.077 64.45C 11.3847 64.45 7.10306 63.1674 4.23213 60.6023C 1.41071 58.0371 0 54.8553 0 51.0568C 0 45.6798 2.84617 40.9195 8.53852 36.7757C 9.85995 35.8138 11.4295 34.8279 13.247 33.8181C 15.4671 32.5847 18.0573 31.3157 21.0176 30.0109C 21.714 29.7039 22.4309 29.395 23.1683 29.0841C 23.2242 29.0605 23.2802 29.0369 23.3363 29.0133C 23.5215 28.9355 23.708 28.8575 23.8958 28.7794C 27.5751 27.2494 31.7463 25.6719 36.4095 24.047C 37.393 23.7043 38.3984 23.3595 39.4257 23.0126L 39.4257 17.5369C 39.4257 13.6398 38.4852 11.1486 36.6043 10.0634C 36.5836 10.0509 36.5628 10.0385 36.5421 10.0262C 35.7565 9.55941 34.911 9.19081 34.0056 8.92037C 32.7581 8.54778 31.3969 8.36148 29.9219 8.36148C 25.8979 8.36148 23.0278 9.30612 21.3116 11.1954C 20.3679 12.2343 19.7731 13.5588 19.5272 15.1691C 19.1739 17.3873 18.5685 19.1782 17.7108 20.542C 17.3669 21.0889 16.9824 21.5671 16.5573 21.9766C 15.1818 23.2561 13.1055 23.943 10.3284 24.0373C 10.1074 24.0448 9.88205 24.0485 9.65224 24.0485C 6.83081 24.0485 4.57863 23.3086 2.89567 21.8287C 1.26222 20.2994 0.445488 18.5235 0.445488 16.501C 0.445488 11.9133 3.48965 8.01617 9.57799 4.8097C 11.6862 3.69939 14.0408 2.78131 16.6416 2.05547C 20.5205 0.97294 24.9473 0.318006 29.9219 0.0906591C 31.2444 0.0302197 32.6056 0 34.0056 0C 35.76 0 37.4251 0.0328025 39.0008 0.0984057C 42.5377 0.245657 45.6245 0.558167 48.2612 1.03594C 52.1221 1.72656 55.2157 3.00915 57.5422 4.8837C 59.9181 6.75825 61.4773 8.73146 62.2198 10.8033C 63.0118 12.8752 63.4078 15.687 63.4078 19.2388L 63.4078 47.3571C 63.4078 47.5205 63.4097 47.6809 63.4135 47.838C 63.4799 50.5668 64.1222 52.3463 65.3405 53.1763C 65.8574 53.5285 66.478 53.7098 67.2023 53.7202C 67.2243 53.7205 67.2464 53.7207 67.2687 53.7207C 69.4961 53.7207 70.9068 52.3394 71.5008 49.5769L 77.6634 49.5769C 77.6503 50.0232 77.6239 50.4592 77.5842 50.885C 77.2427 54.5394 75.9165 57.4367 73.6055 59.5769C 73.1205 60.026 72.5922 60.4418 72.0205 60.8242C 70.5575 61.8165 68.9736 62.6051 67.2687 63.1901C 66.7807 63.3575 66.2828 63.5082 65.775 63.6423C 63.7351 64.1808 61.5353 64.45 59.1756 64.45C 51.6387 64.45 46.1357 62.6596 42.6663 59.0788ZM 54.354 54.0714C 51.1075 53.4759 49.9186 52.3143 49.4257 51.5965L 49.4257 16.3114L 49.4021 16.3212C 49.3438 14.8393 49.1662 13.1526 48.7482 11.4251C 50.0365 11.8387 50.8144 12.305 51.2679 12.6705L 51.3079 12.7027L 51.3482 12.7344C 52.4668 13.617 52.7788 14.1437 52.822 14.2214L 52.8415 14.2758L 52.879 14.3739C 53.0526 14.8282 53.4078 16.2626 53.4078 19.2388L 53.4078 47.3571C 53.4078 49.2853 53.5812 51.6717 54.354 54.0714ZM 29.4257 36.2722C 31.8599 34.7175 35.1933 33.0601 39.4257 31.3001L 39.4257 48.615C 38.5431 49.5513 37.6442 50.3571 36.7289 51.0323C 36.0528 51.531 35.3678 51.9585 34.6738 52.3148C 33.0403 53.1534 31.3326 53.5727 29.5507 53.5727C 28.4481 53.5727 27.4624 53.3543 26.5936 52.9174C 25.8632 52.5502 25.2155 52.0287 24.6503 51.3528C 23.4129 49.8236 22.7941 48.1217 22.7941 46.2471C 22.7941 43.7806 23.8336 41.3881 25.9125 39.0696C 26.0614 38.9075 26.2219 38.744 26.394 38.5792C 27.1689 37.8371 28.1795 37.0681 29.4257 36.2722ZM 12.7943 46.1676C 12.7942 46.1941 12.7941 46.2206 12.7941 46.2471C 12.7941 49.152 13.4754 51.8796 14.725 54.3368C 12.208 54.0724 11.2129 53.4175 10.9182 53.1656C 10.2052 52.5061 10 52.0075 10 51.0568C 10 50.0208 10.3116 48.3907 12.7943 46.1676ZM 61.7149 47.5133C 61.7147 47.513 61.7169 47.5033 61.722 47.4849C 61.7177 47.5044 61.7151 47.5136 61.7149 47.5133Z"/>
<path id="path14_fill" fill-rule="evenodd" d="M 93.8494 102.114L 52.4191 0L 43.7321 0L 0 102.114L 93.8494 102.114ZM 16.3989 93.1602C 16.3989 93.1602 20.2944 83.4422 21.6804 79.9891L 38.6832 36.5537L 58.4332 84.6508C 58.8291 85.6374 62.0169 93.1602 62.0169 93.1602L 55.0178 93.1602L 24.5018 93.1602L 16.3989 93.1602Z"/>
</defs>
</svg>
